<?xml version="1.0" encoding="utf-8"?>

<!-- Uploaded to: SVG Repo, www.svgrepo.com, Generator: SVG Repo Mixer Tools -->
<svg fill="#000000" height="800px" width="800px" version="1.1" id="Icons" xmlns="http://www.w3.org/2000/svg" xmlns:xlink="http://www.w3.org/1999/xlink" 
	 viewBox="0 0 32 32" xml:space="preserve">
<g>
	<path d="M30.6,12.8C30.6,12.8,30.6,12.8,30.6,12.8C30.6,12.7,30.6,12.7,30.6,12.8c-1-4.6-4.1-8.4-8.2-10.3c0,0-0.1,0-0.1-0.1
		c0,0-0.1,0-0.1,0C20.3,1.5,18.2,1,16,1C7.7,1,1,7.7,1,16c0,1.6,0.3,3.2,0.8,4.7c0,0,0,0,0,0.1c0,0,0,0.1,0,0.1
		c0.7,2.2,2,4.1,3.6,5.7c0,0,0,0,0,0s0,0,0,0C8.1,29.3,11.9,31,16,31c8.3,0,15-6.7,15-15C31,14.9,30.9,13.8,30.6,12.8z M12,16
		c0-2.2,1.8-4,4-4s4,1.8,4,4s-1.8,4-4,4S12,18.2,12,16z M16,3c1.6,0,3.1,0.3,4.6,0.8l-3,6.4c-0.5-0.1-1-0.2-1.6-0.2
		c-3.3,0-6,2.7-6,6c0,0.3,0,0.6,0.1,0.9l-6.7,2.2C3.1,18.1,3,17.1,3,16C3,8.8,8.8,3,16,3z M16,29c-3.2,0-6.2-1.2-8.4-3.1l5-5
		c1,0.7,2.2,1.1,3.5,1.1c3.3,0,6-2.7,6-6c0-0.1,0-0.2,0-0.3l6.9-1.5c0.1,0.6,0.1,1.2,0.1,1.8C29,23.2,23.2,29,16,29z"/>
	<path d="M19,16c0-1.7-1.3-3-3-3s-3,1.3-3,3s1.3,3,3,3S19,17.7,19,16z M15,16c0-0.6,0.4-1,1-1s1,0.4,1,1s-0.4,1-1,1S15,16.6,15,16z"
		/>
</g>
</svg>